<?xml version="1.0"?><svg width="640" height="480" xmlns="http://www.w3.org/2000/svg">
 <title>leafy frame edited in green</title>
 <g>
  <title>Layer 1</title>
  <g display="inline" id="layer2">
   <path d="m60.009499,38.817902l9.240799,-1.977402c13.643005,-16.7999 52.863701,-25.516 83.5467,4.755798l6.033997,-2.953598c-25.923996,-27.3713 -73.579094,-32.53699 -98.821495,0.175201l0,0zm-6.478397,31.135696l-1.088001,-6.077999c-44.19588,-16.1936 -13.8764,-54.835958 13.804604,-39.299999l5.255798,-3.815599c-37.495602,-23.07423 -78.627142,29.999701 -17.972401,49.193598l0,0zm115.181896,-22.6003l-4.576996,2.628201c70.858994,53.636497 108.353989,-53.019009 179.628006,-9.686798c-70.528015,-50.00014 -108.705002,54.812798 -175.05101,7.058598zm-50.051994,12.865704l0.955994,5.199699c36.084999,-4.468102 78.262001,-57.335072 128.288002,-23.312901l4.244003,-3.183399c-52.966995,-39.248501 -101.820999,16.814999 -133.487999,21.2966l0,0l0,0zm-36.030502,-30.937702l-4.518303,3.479301c9.324799,8.32 9.527199,16.845299 10.868103,30.373699l6.709801,-1.063099c-0.826805,-12.125603 -2.336601,-23.867702 -13.059601,-32.789902zm11.328598,10.7705l1.4935,5.0215c12.699402,3.601799 16.831398,13.139301 13.530403,30.764698l5.862,-0.280594c3.464996,-18.502304 0.531998,-31.502804 -20.885902,-35.505604zm-37.1245,13.8256c-3.1105,10.128902 -1.2747,32.977299 28.069698,33.099102l1.078606,-5.206299c-23.869804,-0.815002 -25.273804,-18.668102 -20.609703,-31.162903l-8.538601,3.2701zm-24.634998,8.469101c-34.47992,56.020496 96.164398,71.497494 27.463902,156.665493l2.094997,5.031006c77.086502,-87.688995 -53.17417,-109.689003 -23.845299,-157.691597l-5.7136,-4.004803l0,-0.000099zm73.100403,0.377701c-11.1521,3.500301 -25.512901,4.490597 -37.3255,4.194096l1.114601,4.541504c8.895699,1.021599 29.108795,-1.285202 36.803894,-3.706703l-0.592995,-5.028896zm-15.7024,11.111301c-0.1707,16.806999 1.067795,33.300499 -23.029205,50.936501l3.585602,4.280991c24.304703,-16.514992 25.650604,-31.707794 25.477798,-56.06929l-6.034195,0.851799zm8.832695,7.008499l0.397804,5.525101c40.644905,-9.637001 42.858894,9.648201 35.777901,16.225899c-7.080002,6.579002 -23.315002,1.459 -21.105003,-15.293098l-5.663002,0.295898c-3.591995,20.157196 19.227005,30.120201 31.928009,19.324196c12.632996,-10.737694 3.237991,-37.370697 -41.335709,-26.077995l0,0zm-41.9189,51.086998c-51.803758,43.541 14.545403,104.856995 14.094398,139.36499c-0.448395,34.296021 -27.078098,48.038025 -27.849598,77.708008c-0.773399,29.739014 22.2243,52.950012 21.2598,62.255005c-0.9645,9.303986 -14.9524,10.394012 -14.704098,-1.927002c-3.118801,15.605988 17.371799,14.552002 16.996395,0.746002c-0.375,-13.792999 -20.063297,-30.856018 -19.456795,-60.200012c0.617298,-29.873993 26.9487,-38.811981 28.418396,-78.582001c1.469604,-39.769989 -63.573498,-92.947983 -14.210999,-135.910995l-4.547501,-3.453995zm24.517403,-91.9856c-16.365501,0.0396 -31.6096,6.0662 -39.7188,13.909199l5.5233,3.811302c6.716297,-5.638302 18.202396,-12.927502 36.380199,-12.390102l-2.1847,-5.330399zm431.416206,12.3479c-15.25,-0.735302 -37.949005,-17.6091 -90.516022,-17.2449c-52.566986,0.364201 -114.438995,42.399696 -157.600983,12.2799l-3.411011,3.529301c46.304993,33.394497 109.643005,-11.5797 161.011993,-11.879402c51.369019,-0.299801 71.238007,14.456501 89.991028,15.642902c18.75296,1.186398 22.54599,-17.774101 -1.678009,-15.687c20.940002,1.102299 17.451965,14.094498 2.203003,13.3592zm-461.662106,175.267704c0,0 -12.562901,18.048996 -13.717503,28.302994c-1.156399,10.268997 -1.881798,19.922989 8.0481,28.675003c-5.9109,-9.190002 -6.259697,-12.787994 -5.1693,-25.248016c1.090302,-12.459991 13.683102,-26.831985 13.683102,-26.831985l-2.844398,-4.897995z" stroke-miterlimit="4" stroke="#66ba12" fill-rule="evenodd" fill="#00bf00" id="path7339"/>
  </g>
 </g>
</svg>